<svg id="d6ad01fd-96fd-4526-b71a-6d8ceffccfc9" data-name="图层 1" xmlns="http://www.w3.org/2000/svg" viewBox="0 0 231.52 73.87"><title>corps_x</title><path d="M206.67,34a6.12,6.12,0,0,0-.4.6c-4.6,6.8-9.2,13.7-13.8,20.5-0.1.1-.2,0.3-0.3,0.4a0.6,0.6,0,0,1-.6.3h-7.2c-0.6,0-.7-0.2-0.3-0.7,1.5-2.2,3-4.5,4.5-6.7,4.4-6.5,8.8-13,13.2-19.6,0.4-.6.5-0.5,0-1.3-5.5-8.1-11-16.2-16.5-24.4-0.1-.2-0.3-0.4-0.4-0.6s0-.4.3-0.5h7.7a1.25,1.25,0,0,1,1.1.6c4.1,6.4,8.1,12.8,12.2,19.2a5.58,5.58,0,0,1,.5.8c0.2-.3.4-0.5,0.5-0.7,4.2-6.3,8.4-12.7,12.7-19,0.7-1,.3-0.8,1.6-0.9h6.6c0.5,0,.6.2,0.4,0.6-0.1.1-.2,0.3-0.3,0.4-5.5,8.1-11,16.1-16.4,24.2l-0.6.9c0.1,0.2.3,0.5,0.4,0.7,5.9,8.6,11.8,17.3,17.7,25.9,0.1,0.2.2,0.3,0.3,0.5a0.37,0.37,0,0,1-.2.5h-7.8a1.15,1.15,0,0,1-1.1-.6l-13.2-20.4A1.44,1.44,0,0,1,206.67,34Z"/><path d="M121.17,50.7V71.5c0,0.4-.1.5-0.5,0.5h-3.6c-0.4,0-.5-0.1-0.5-0.5v-48c0-1,0-1,1-1h2.8c0.7,0,.8,0,0.8.8v4.4c0.1-.1.2-0.1,0.3-0.2a14.3,14.3,0,0,1,8.3-5.3,18.58,18.58,0,0,1,12.5,1.2,16.13,16.13,0,0,1,9.1,11.9,19,19,0,0,1-.9,10.8,16.11,16.11,0,0,1-12.3,10.1,17.92,17.92,0,0,1-10.5-.8,13.32,13.32,0,0,1-6.2-4.5c-0.1-.1-0.1-0.2-0.2-0.3Zm13.1,1.8c0.7-.1,1.4-0.1,2.1-0.2a11.78,11.78,0,0,0,9.7-7.6,14.71,14.71,0,0,0,1-6.9,13.75,13.75,0,0,0-2-6.2,12.24,12.24,0,0,0-9.2-5.6,14.12,14.12,0,0,0-8.3,1.6,13.18,13.18,0,0,0-6.2,15.9A13.7,13.7,0,0,0,134.28,52.5Z"/><path d="M43.07,44.6c1.4,1.1,2.7,2.1,4.1,3.1-0.2.2-.3,0.5-0.5,0.7a21.39,21.39,0,0,1-13.9,8.4,27.67,27.67,0,0,1-17-2.3,24.05,24.05,0,0,1-11.9-13A27,27,0,0,1,2,33.1,31,31,0,0,1,3.37,21,23.94,23.94,0,0,1,13.77,7.8a25.88,25.88,0,0,1,9.7-3.6,24.16,24.16,0,0,1,7.1-.2,24,24,0,0,1,10.1,3.2,20.14,20.14,0,0,1,4.8,4.4,4,4,0,0,0,.3.4c-0.1.1-.2,0.1-0.3,0.2-1.1.9-2.2,1.9-3.3,2.8-0.5.4-.5,0.4-0.9-0.1a13.87,13.87,0,0,0-5.1-4.5A17,17,0,0,0,30,8.6a21.45,21.45,0,0,0-10.9,1.7A19.8,19.8,0,0,0,8,23.3a26,26,0,0,0-.9,10,21.06,21.06,0,0,0,3.2,9.7,19.6,19.6,0,0,0,13.1,9.1,20.19,20.19,0,0,0,6.5.4,17.31,17.31,0,0,0,9.4-3.8,14.35,14.35,0,0,0,3.2-3.3C42.67,45.1,42.88,44.9,43.07,44.6Z"/><path d="M86.48,39.2a20,20,0,0,1-2.3,8.9,15.73,15.73,0,0,1-9.6,7.7,18.82,18.82,0,0,1-11.5,0,15.37,15.37,0,0,1-10.3-9.4,18.68,18.68,0,0,1,.8-16.3,15.52,15.52,0,0,1,10.8-8,18.77,18.77,0,0,1,11.7.9c5.5,2.3,8.7,6.5,9.9,12.3C86.28,36.7,86.28,38,86.48,39.2ZM69.17,52.4a16.25,16.25,0,0,0,1.8-.2,11.8,11.8,0,0,0,9.2-6.6,14.58,14.58,0,0,0,.7-11.4,11.86,11.86,0,0,0-6.5-7.2,12.86,12.86,0,0,0-8.2-.9,11.63,11.63,0,0,0-9,7,14.26,14.26,0,0,0-1,8.4A12.76,12.76,0,0,0,59,47.9,12.42,12.42,0,0,0,69.17,52.4Z"/><path d="M156.28,49.7c1.3-.9,2.5-1.7,3.7-2.5,0.3-.2.5-0.2,0.7,0.2a9.86,9.86,0,0,0,7.9,4.9,8.33,8.33,0,0,0,6.3-1.5,5.94,5.94,0,0,0,2.3-3.1,5.33,5.33,0,0,0-.1-2.8,3.15,3.15,0,0,0-1.3-1.7,10.11,10.11,0,0,0-3.3-1.6l-5.1-1.2a19.8,19.8,0,0,1-4.7-1.5,10.57,10.57,0,0,1-2.6-1.7,7,7,0,0,1-2.2-3.9,10.88,10.88,0,0,1,0-3.6,8.91,8.91,0,0,1,4.5-6.3,13.84,13.84,0,0,1,6.9-1.7,17,17,0,0,1,5.9,1,10.38,10.38,0,0,1,5.5,4.8l0.3,0.6c-1.4.8-2.7,1.6-4.1,2.4-0.2-.2-0.3-0.4-0.5-0.6a15.58,15.58,0,0,0-1.6-2,7.18,7.18,0,0,0-4.4-2,9.2,9.2,0,0,0-5.4,1,6.15,6.15,0,0,0-2,1.6,4.12,4.12,0,0,0-.4,4.4,3.48,3.48,0,0,0,1.3,1.4,11.34,11.34,0,0,0,4.1,1.6c1.8,0.4,3.5.7,5.3,1.1a16.27,16.27,0,0,1,3.7,1.3l1.5,0.9a7.62,7.62,0,0,1,3.3,5.9,9.76,9.76,0,0,1-.2,3.4,9.51,9.51,0,0,1-4.9,6.5,12,12,0,0,1-5.3,1.5,19.43,19.43,0,0,1-9.5-1.5,11.58,11.58,0,0,1-5.2-4.6C156.58,50.3,156.48,50,156.28,49.7Z"/><path d="M112.17,22.1c-0.1.9-.2,1.7-0.3,2.5-0.1.5-.1,1-0.2,1.5s-0.2.5-.6,0.4a9.86,9.86,0,0,0-11.3,6.8,16.11,16.11,0,0,0-.6,4.4v17c0,1.1,0,1.1-1,1.1h-2.8c-0.7,0-.8-0.1-0.8-0.8V35.6c0-4.1-.2-8.2-0.4-12.3V23c0-.5.1-0.6,0.6-0.6h4c0.1,1.7.1,3.4,0.2,5a0.46,0.46,0,0,0,.5-0.3,16.68,16.68,0,0,1,2.5-2.8,10.44,10.44,0,0,1,7.7-2.7A18.43,18.43,0,0,1,112.17,22.1Z"/></svg>